<?xml version="1.0" encoding="UTF-8" standalone="no"?>
<!-- Created with Inkscape (http://www.inkscape.org/) -->

<svg
   xmlns:dc="http://purl.org/dc/elements/1.1/"
   xmlns:cc="http://creativecommons.org/ns#"
   xmlns:rdf="http://www.w3.org/1999/02/22-rdf-syntax-ns#"
   xmlns:svg="http://www.w3.org/2000/svg"
   xmlns="http://www.w3.org/2000/svg"
   xmlns:sodipodi="http://sodipodi.sourceforge.net/DTD/sodipodi-0.dtd"
   xmlns:inkscape="http://www.inkscape.org/namespaces/inkscape"
   version="1.1"
   id="svg2"
   xml:space="preserve"
   width="746.66669"
   height="746.66669"
   viewBox="0 0 746.66669 746.66669"
   sodipodi:docname="bope.svg"
   inkscape:version="0.92.5 (2060ec1f9f, 2020-04-08)"><metadata
     id="metadata8"><rdf:RDF><cc:Work
         rdf:about=""><dc:format>image/svg+xml</dc:format><dc:type
           rdf:resource="http://purl.org/dc/dcmitype/StillImage" /><dc:title></dc:title></cc:Work></rdf:RDF></metadata><defs
     id="defs6" /><sodipodi:namedview
     pagecolor="#ffffff"
     bordercolor="#666666"
     borderopacity="1"
     objecttolerance="10"
     gridtolerance="10"
     guidetolerance="10"
     inkscape:pageopacity="0"
     inkscape:pageshadow="2"
     inkscape:window-width="1366"
     inkscape:window-height="704"
     id="namedview4"
     showgrid="false"
     inkscape:zoom="0.31607142"
     inkscape:cx="373.33334"
     inkscape:cy="373.33334"
     inkscape:window-x="0"
     inkscape:window-y="0"
     inkscape:window-maximized="1"
     inkscape:current-layer="g10" /><g
     id="g10"
     inkscape:groupmode="layer"
     inkscape:label="ink_ext_XXXXXX"
     transform="matrix(1.3333333,0,0,-1.3333333,0,746.66667)"><g
       id="g12"
       transform="scale(0.1)"><path
         d="M 2796.38,5595.07 C 4340.09,5595.07 5592,4343.17 5592,2799.45 5592,1255.74 4340.09,3.83984 2796.38,3.83984 1252.67,3.83984 0.769531,1255.74 0.769531,2799.45 0.769531,4343.17 1252.67,5595.07 2796.38,5595.07"
         style="fill:#ed1c24;fill-opacity:1;fill-rule:evenodd;stroke:none"
         id="path14"
         inkscape:connector-curvature="0" /><path
         d="m 2796.38,5028.87 c 1231.06,0 2229.42,-998.35 2229.42,-2229.41 0,-1231.07 -998.36,-2229.417 -2229.42,-2229.417 -1231.06,0 -2229.411,998.347 -2229.411,2229.417 0,1231.06 998.351,2229.41 2229.411,2229.41"
         style="fill:#231f20;fill-opacity:1;fill-rule:evenodd;stroke:none"
         id="path16"
         inkscape:connector-curvature="0" /><path
         d="m 4463.62,2732.21 -8.26,-51.17 c -84.44,-4.42 -137.15,-26.59 -167.01,-57.26 l -151.51,58.92 49.11,123.67 -32.93,13.08 -49.22,-123.9 -24.41,9.49 49.28,124.08 -32.93,13.07 -49.37,-124.3 -24.42,9.49 49.44,124.48 -32.93,13.09 -49.53,-124.73 -24.42,9.5 49.6,124.9 -32.92,13.07 -49.71,-125.13 -24.41,9.5 49.77,125.3 -32.93,13.08 -49.87,-125.55 -24.42,9.5 49.94,125.72 -32.93,13.08 -50.02,-125.96 -2117.15,823.34 -20.06,-40.13 2585.97,-1000.76 c -2.84,-6.59 -5,-13.38 -6.52,-20.27 39.7,-92.17 127.81,-118.86 183.42,-177.18 -100.85,-14.46 -238.15,21.29 -270.67,-67.13 l -42.99,-772.14 -400.68,68.71 80.28,978.23 h 153.77 c 53.16,0 108.07,-49.65 106.29,-104.9 l -29.92,-926.56 40.68,-6.98 34.47,942.67 c 2.34,64.29 -57.68,128.78 -137.95,132.26 l -210.31,9.13 -87.06,-1015.31 -63.25,10.84 49.96,654.89 c -132.29,95.89 -58.87,191.51 -48.08,312.14 10.8,120.63 -274.2,123.71 -325.7,183.57 l -1675.76,643.1 -17.76,44.04 -0.25,0.11 c 18.64,52.96 22.15,233.02 -6.96,253.46 l -382.9,150.46 15.12,38.95 c 813.17,-321.27 1622.44,-652.57 2439.58,-963.56 39.14,-14.89 67.2,20.34 80.87,65.16 l -35.22,15.97 c -6.45,-32.78 -21.34,-50.02 -51.26,-38.11 l -2417.8,962.16 32.05,82.55 3025.81,-1172.09 c -9.89,-77.33 46.41,-155.41 166.99,-141.64 z m -2898.8,760.73 -435.68,188.08 66.03,170.08 369.02,-149.63 c 18.72,-7.59 16.49,-169.36 0.63,-208.53"
         style="fill:#fff200;fill-opacity:1;fill-rule:evenodd;stroke:none"
         id="path18"
         inkscape:connector-curvature="0" /><path
         d="m 1129.14,2732.21 8.26,-51.17 c 84.44,-4.42 137.15,-26.59 167.01,-57.26 l 151.51,58.92 -49.12,123.67 32.94,13.08 49.21,-123.9 24.42,9.49 -49.29,124.08 32.93,13.07 49.37,-124.3 24.43,9.49 -49.45,124.48 32.93,13.09 49.54,-124.73 24.42,9.5 -49.61,124.9 32.93,13.07 49.7,-125.13 24.42,9.5 -49.77,125.3 32.92,13.08 49.87,-125.55 24.42,9.5 -49.93,125.72 32.92,13.08 50.03,-125.96 2117.14,823.34 20.06,-40.13 -2585.96,-1000.76 c 2.83,-6.59 4.99,-13.38 6.51,-20.27 -39.7,-92.17 -127.81,-118.86 -183.41,-177.18 100.84,-14.46 238.14,21.29 270.67,-67.13 l 42.98,-772.14 400.68,68.71 -80.27,978.23 h -153.78 c -53.15,0 -108.07,-49.65 -106.29,-104.9 l 29.93,-926.56 -40.68,-6.98 -34.47,942.67 c -2.35,64.29 57.67,128.78 137.94,132.26 l 210.31,9.13 87.06,-1015.31 63.26,10.84 -49.96,654.89 c 132.28,95.89 58.87,191.51 48.07,312.14 -10.8,120.63 274.21,123.71 325.7,183.57 l 1675.76,643.1 17.76,44.04 0.25,0.11 c -18.64,52.96 -22.15,233.02 6.96,253.46 l 382.9,150.46 -15.12,38.95 C 3556.99,3600.5 2747.71,3269.2 1930.58,2958.21 c -39.14,-14.89 -67.21,20.34 -80.88,65.16 l 35.22,15.97 c 6.46,-32.78 21.35,-50.02 51.26,-38.11 l 2417.8,962.16 -32.04,82.55 -3025.82,-1172.09 c 9.89,-77.33 -46.41,-155.41 -166.98,-141.64 z m 2898.79,760.73 435.69,188.08 -66.03,170.08 -369.02,-149.63 c -18.72,-7.59 -16.5,-169.36 -0.64,-208.53"
         style="fill:#fff200;fill-opacity:1;fill-rule:evenodd;stroke:none"
         id="path20"
         inkscape:connector-curvature="0" /><path
         d="m 2650.5,1713.53 1.24,-13.96 c 49.26,-7.41 102,-9.32 156.52,-4.79 39.22,3.26 76.99,9.65 112.73,18.72 0.59,6.93 1.33,13.8 2.21,20.56 -112.22,6.6 -208.58,0 -272.7,-20.53 z m 3.14,-36.47 c 0.98,-11.94 1.91,-23.94 2.78,-36.01 47.9,-6.82 99.05,-8.47 151.84,-4.08 38.59,3.2 75.78,9.45 111.01,18.29 -0.2,10.48 -0.15,20.85 0.17,31.06 -33.99,-10.74 -70.48,-18.05 -108.71,-21.23 -55.4,-4.61 -108.68,-0.05 -157.09,11.97 z m 4.35,-58.88 c 0.78,-11.76 1.52,-23.59 2.2,-35.47 46.81,-6.38 96.66,-7.83 148.07,-3.56 39.77,3.31 78.05,9.85 114.23,19.12 -0.92,10.23 -1.69,20.42 -2.24,30.5 -34.23,-10.88 -70.99,-18.3 -109.52,-21.5 -53.75,-4.47 -105.49,-0.32 -152.74,10.91 z m 3.46,-58.63 c 0.59,-11.61 1.14,-23.3 1.63,-35.04 45.98,-6.05 94.83,-7.35 145.18,-3.17 42.2,3.5 82.72,10.64 120.84,20.84 -1.45,10.15 -2.77,20.28 -3.94,30.36 -35.61,-11.75 -74.05,-19.72 -114.43,-23.08 -52.44,-4.36 -102.97,-0.51 -149.28,10.09 z m 2.53,-58.39 c 0.41,-11.51 0.79,-23.09 1.09,-34.72 45.39,-5.83 93.57,-7.04 143.19,-2.92 45.53,3.79 89.12,11.8 129.83,23.31 -1.83,10.17 -3.59,20.35 -5.22,30.52 -37.75,-13.19 -78.83,-22.1 -122.14,-25.71 -51.48,-4.27 -101.12,-0.65 -146.75,9.52 z m 1.63,-58.16 c 0.23,-11.45 0.43,-22.96 0.56,-34.52 45.07,-5.7 92.87,-6.86 142.09,-2.77 49.53,4.12 96.73,13.22 140.47,26.42 -2.12,10.26 -4.19,20.57 -6.18,30.9 -40.37,-15.12 -84.78,-25.29 -131.82,-29.2 -50.87,-4.22 -99.94,-0.74 -145.12,9.17 z m 0.75,-57.98 c 0.05,-11.4 0.07,-22.87 0.02,-34.38 45.01,-5.68 92.73,-6.83 141.88,-2.75 53.97,4.49 105.19,14.9 152.15,30.07 -2.32,10.42 -4.63,20.94 -6.9,31.52 -43.22,-17.49 -91.45,-29.2 -142.78,-33.46 -50.59,-4.21 -99.41,-0.78 -144.37,9 z m -0.15,-57.79 c -0.12,-11.37 -0.29,-22.82 -0.51,-34.32 45.21,-5.75 93.16,-6.93 142.56,-2.83 58.67,4.87 114.09,16.76 164.33,34.13 -2.43,10.66 -4.91,21.47 -7.38,32.38 -46.14,-20.21 -98.46,-33.73 -154.48,-38.39 -50.65,-4.21 -99.52,-0.76 -144.52,9.03 z m -1.04,-57.59 c -0.29,-11.39 -0.63,-22.84 -1.03,-34.34 45.67,-5.93 94.16,-7.19 144.12,-3.03 63.42,5.27 123.04,18.71 176.42,38.46 -2.43,10.94 -4.96,22.13 -7.54,33.49 -48.98,-23.22 -105.5,-38.77 -166.41,-43.83 -51.04,-4.25 -100.27,-0.72 -145.56,9.25 z m -1.89,-57.39 c -0.47,-11.42 -0.98,-22.91 -1.56,-34.45 46.37,-6.2 95.69,-7.57 146.54,-3.35 67.92,5.64 131.48,20.68 187.69,42.76 -2.21,11.29 -4.65,22.95 -7.22,34.9 -51.56,-26.39 -112.23,-44.07 -178,-49.54 -51.75,-4.3 -101.64,-0.62 -147.45,9.68 z m -2.76,-57.18 c -0.65,-11.49 -1.33,-23.04 -2.09,-34.65 47.33,-6.58 97.78,-8.11 149.83,-3.78 71.66,5.95 138.49,22.36 196.93,46.48 -1.61,11.66 -3.63,23.95 -5.95,36.74 -53.76,-29.47 -118.22,-49.26 -188.51,-55.11 -52.79,-4.38 -103.64,-0.45 -150.21,10.32 z m -3.6,-56.97 c -0.82,-11.58 -1.69,-23.21 -2.62,-34.89 48.52,-7.07 100.4,-8.84 153.96,-4.39 73.4,6.1 141.71,23.15 201.15,48.24 0.14,11.96 -0.67,25.2 -2.2,39.48 -55.29,-31.95 -122.67,-53.47 -196.48,-59.6 -54.16,-4.49 -106.27,-0.26 -153.81,11.16 z m -2.58,-57.19 c 16.71,-105.316 296.26,-81.996 346.07,18.14 4.12,8.29 6.66,18.51 7.97,30.35 -55.52,-32.32 -123.33,-54.1 -197.65,-60.27 -55.13,-4.58 -108.16,-0.11 -156.39,11.78 z m 363.09,744.84 85.71,6.89 3.1,0.25 -0.01,0.04 c 50.05,5.09 87.79,34.92 84.81,67.56 -3.05,33.3 -47.36,56.96 -98.94,52.8 -43.38,-3.49 -78.1,-25.52 -86.24,-52.25 l -32.99,-2.66 -0.01,0.56 c -208.09,7.56 -317.28,-10.94 -348.93,-28.57 l -134.3,-10.81 -3.1,-0.25 0.01,-0.03 c -50.06,-5.09 -87.8,-34.92 -84.81,-67.56 3.04,-33.31 47.35,-56.96 98.93,-52.81 43.21,3.48 77.83,25.37 86.14,51.95 v 1.03 c 39.34,47.91 210.66,49.21 430.63,33.86 z m -44.79,93.42 -29.14,2688.43 h -0.01 l -72.47,87.36 -72.47,87.36 -2.11,-2.53 23.28,-959.15 23.33,-961.69 h -46.67 -46.67 l 23.33,961.69 23.28,958.99 -70.24,-84.67 -72.47,-87.36 h -0.01 l -29.38,-2710.35 c 83.04,27.52 159.55,28.42 348.42,21.92"
         style="fill:#fff200;fill-opacity:1;fill-rule:evenodd;stroke:none"
         id="path22"
         inkscape:connector-curvature="0" /><g
         id="g24"
         transform="matrix(0,-0.97957,1.02043,0,0,0)"><path
           d="m -4020.81,2914.65 c 62.82,239.95 230.15,466.62 406.99,473.64 l 642.18,25.53 3.51,4.61 c 163.63,77.31 266.97,37.99 310.01,-117.95 85.51,-41.14 192.46,-67 330.76,-70.54 114.62,-71.16 223.77,-168.45 281.57,-310.61 l 0.03,-0.02 -0.01,-0.04 c 4.45,-10.92 8.6,-22.09 12.41,-33.56 16.07,-48.31 11.73,-97.25 3.49,-145.32 8.24,-48.06 12.58,-97 -3.49,-145.31 -3.81,-11.46 -7.96,-22.63 -12.41,-33.55 l 0.01,-0.05 -0.03,-0.01 c -57.8,-142.16 -166.95,-239.46 -281.57,-310.62 -138.3,-3.54 -245.25,-29.39 -330.76,-70.54 -43.04,-155.94 -146.38,-195.25 -310.01,-117.94 l -562.86,-30.42 c -216.1,-11.68 -439.71,286.28 -500.13,556.97 15.18,26.02 12.7,57.3 -11.74,113.64 -10.16,23.46 29.2,40.42 30.79,56.4 2.52,25.51 -0.42,122.95 -8.74,155.69 z"
           style="fill:none;stroke:#231f20;stroke-width:60.77080154;stroke-linecap:round;stroke-linejoin:round;stroke-miterlimit:2.61310005;stroke-dasharray:none;stroke-opacity:1"
           id="path26"
           inkscape:connector-curvature="0" /></g><path
         d="m 2974.2,3938.66 c 244.85,-61.53 476.14,-225.44 483.32,-398.67 l 26.04,-629.06 4.71,-3.43 c 78.88,-160.3 38.77,-261.52 -120.36,-303.69 -41.98,-83.76 -68.37,-188.52 -71.98,-323.99 -72.61,-112.28 -171.89,-219.2 -316.96,-275.82 l -0.02,-0.04 -0.04,0.01 c -11.15,-4.35 -22.55,-8.42 -34.25,-12.15 -49.29,-15.74 -99.23,-11.49 -148.28,-3.42 -49.05,-8.07 -98.99,-12.32 -148.28,3.42 -11.7,3.73 -23.1,7.8 -34.24,12.15 l -0.05,-0.01 -0.01,0.04 c -145.07,56.62 -244.35,163.54 -316.96,275.82 -3.62,135.47 -30,240.23 -71.98,323.99 -159.13,42.17 -199.25,143.39 -120.36,303.69 l -31.04,551.36 c -11.91,211.68 292.13,430.72 568.35,489.91 26.56,-14.87 58.48,-12.44 115.96,11.5 23.94,9.94 41.25,-28.61 57.55,-30.16 26.03,-2.48 125.47,0.4 158.88,8.55"
         style="fill:#ffffff;fill-opacity:1;fill-rule:evenodd;stroke:none"
         id="path28"
         inkscape:connector-curvature="0" /><path
         d="m 3367.91,2603.81 c -80.91,-5.87 -121.77,34.94 -221.98,34.74 -50.11,-0.1 -35.13,-124.28 -32.5,-182.2 -1.81,-1.76 -4.77,-3.44 -8.67,-5.08 -91.23,-15.11 -203.84,-22.25 -308.37,-23.45 -104.54,1.2 -217.14,8.34 -308.37,23.45 -3.91,1.64 -6.88,3.32 -8.69,5.08 2.63,57.92 17.61,182.1 -32.49,182.2 -100.22,0.2 -141.08,-40.61 -221.98,-34.74 30.28,-22.57 91.52,-19.14 177.88,-11.16 15.66,-114.67 30.66,-160.45 73.32,-227.83 99.46,-82.05 210.67,-121.55 320.33,-121.38 109.66,-0.17 220.85,39.33 320.31,121.38 42.67,67.38 57.66,113.16 73.32,227.83 86.37,-7.98 147.6,-11.41 177.89,11.16"
         style="fill:#231f20;fill-opacity:1;fill-rule:evenodd;stroke:none"
         id="path30"
         inkscape:connector-curvature="0" /><path
         d="m 2816.98,2424.89 c 1.18,44.85 -5.23,89.71 -19.23,134.57 -15.4,-43.47 -21.78,-89.51 -21.97,-137.32 l 41.2,2.75"
         style="fill:#231f20;fill-opacity:1;fill-rule:evenodd;stroke:none"
         id="path32"
         inkscape:connector-curvature="0" /><path
         d="m 2873.69,2424.89 c -0.07,43.69 -7.23,88.69 -19.23,134.57 -2.15,-46.29 -8.96,-92.12 -21.96,-137.32 l 41.19,2.75"
         style="fill:#231f20;fill-opacity:1;fill-rule:evenodd;stroke:none"
         id="path34"
         inkscape:connector-curvature="0" /><path
         d="m 2719.07,2424.89 c 0.07,43.69 7.23,88.69 19.23,134.57 2.15,-46.29 8.97,-92.12 21.97,-137.32 l -41.2,2.75"
         style="fill:#231f20;fill-opacity:1;fill-rule:evenodd;stroke:none"
         id="path36"
         inkscape:connector-curvature="0" /><path
         d="m 2220.32,3127.23 c -3.07,124.96 32.01,133.47 109.3,80.7 85.81,-87.17 165.83,-133.82 228.82,-73.55 26.3,32.17 50.98,28.76 74.57,1.03 56.86,-92.62 23.62,-211.93 -21.46,-221.67 -87.63,-18.94 -232.01,-28.67 -302.36,9.19 -41.72,22.46 -70.59,88.96 -88.87,204.3"
         style="fill:#231f20;fill-opacity:1;fill-rule:evenodd;stroke:none"
         id="path38"
         inkscape:connector-curvature="0" /><path
         d="m 3372.43,3127.23 c 3.07,124.96 -32,133.47 -109.29,80.7 -85.8,-87.17 -165.82,-133.82 -228.82,-73.55 -26.3,32.17 -50.98,28.76 -74.57,1.03 -56.86,-92.62 -23.61,-211.93 21.45,-221.67 87.64,-18.94 232.02,-28.67 302.37,9.19 41.72,22.46 70.59,88.96 88.86,204.3"
         style="fill:#231f20;fill-opacity:1;fill-rule:evenodd;stroke:none"
         id="path40"
         inkscape:connector-curvature="0" /><path
         d="m 2780.15,2601.06 8.04,188.11 18.77,-190.79 c 26.81,-8.06 46.47,-5.38 58.99,8.05 -0.44,131.24 -20.65,259.52 -42.54,304.75 -12.84,-30.3 -28.88,-71.74 -43.1,-68.05 1.21,31.26 -9.83,57.35 -15.54,78.23 -69.62,-55.55 -49.69,-241.61 -51.66,-312.23 25.93,-24.19 48.28,-26.88 67.04,-8.07"
         style="fill:#231f20;fill-opacity:1;fill-rule:evenodd;stroke:none"
         id="path42"
         inkscape:connector-curvature="0" /><path
         d="m 2954.36,3966.52 c 6.45,-0.77 10.1,-2.64 12.76,-6.02 2.97,-3.76 11.7,-13 11.72,-14.86 0.12,-12.29 0.22,-25.93 4.64,-36.5 1.68,-4.01 6.45,-12.15 7.29,-14.34 1.06,-2.77 -1.79,-5.98 -1.06,-8.86 0.29,-1.13 6.22,-15.19 7.28,-14.35 l 4.96,3.91 c 5.15,4.05 -4.08,-8.85 7.28,-14.34 18,-8.7 34.29,-5.65 57.07,-11.28 -41.1,15.6 -67.74,1.59 -104.75,25.92 -14.43,9.5 -20.2,-3.87 -32.59,-9.6 -25.96,-12.01 -26.93,-7.11 -39.66,-31.23 -12.32,-23.38 -34.43,-31.19 -20.66,-60.44 7.78,-16.49 6.72,-44.14 9.83,-68.56 1.65,13.85 10.28,12.66 3.69,31.01 -4.61,12.81 -14.29,30.21 -17.42,42.5 -7.23,28.45 30.02,41.66 7.9,66.46 -12.84,14.4 -35.23,7.15 -42.72,18.55 -6.41,9.76 0.68,25.43 -0.22,35.97 -1.63,19.04 -13.73,9.7 -25,16.45 -13.84,8.28 -9.01,11.05 -39.57,45.14 -16.15,-49.48 -41.36,-68.69 -83.52,-97.91 -12.95,-8.96 -11.21,-36.21 -26.88,-37.23 -34.98,-2.28 -67.68,-54.8 -55.96,-97.11 -28.66,35.71 29.75,86.11 39.82,112.5 3.55,9.33 2.49,20.98 3.68,31.02 6.17,51.93 23.19,-3.04 9.48,79.73 -15.8,-2.87 -29.78,-3.36 -41.98,-12.98 -10.06,-7.92 -13.06,-25.02 -21.93,-33.33 -9.84,-9.21 -25.47,-17.65 -38.6,-22.37 -9.42,-3.38 -11.09,-8.73 -19.83,-15.62 -14.61,-11.5 -15.46,-1.57 -32.06,-5.17 -21.72,-4.71 -24.12,-35.01 -31.23,-53.74 22.45,23.5 6.52,47.82 41.6,57.57 25.28,7.02 51.13,19.53 70.58,35.05 18.91,15.09 24.37,29.59 29.7,51.11"
         style="fill:none;stroke:#231f20;stroke-width:15.6303997;stroke-linecap:round;stroke-linejoin:miter;stroke-miterlimit:2.61310005;stroke-dasharray:none;stroke-opacity:1"
         id="path44"
         inkscape:connector-curvature="0" /><path
         d="m 2449.03,2912.84 c -27.14,-23.52 -16.84,-47.69 -16.84,-75.12 0,-16.9 -54.34,-70.91 -73.82,-72.52 -37.23,-3.1 -53.6,-54.13 -77.7,-62.17 47.19,36.08 100.36,73.85 139.87,108.79 16.59,14.68 11.91,33.04 14.24,55.69 4.04,39.11 14.36,23.42 36.27,45.33"
         style="fill:none;stroke:#231f20;stroke-width:15.6303997;stroke-linecap:butt;stroke-linejoin:miter;stroke-miterlimit:2.61310005;stroke-dasharray:none;stroke-opacity:1"
         id="path46"
         inkscape:connector-curvature="0" /><path
         d="m 3104.34,2912.13 c 0,-13.77 4.35,-74.61 27.06,-65.88 17.51,6.74 44.45,-16.48 55.3,-25.88 21.26,-18.43 65.96,-18.93 85.87,-55.29 8.21,-14.99 56.21,-36.26 65.88,-52.39 -16.59,10.95 -126.16,109.95 -142.34,111.21 -5.37,0.42 -51.14,22.64 -62.36,27.06 -30.94,12.18 -33.54,44.1 -10.59,67.06"
         style="fill:none;stroke:#231f20;stroke-width:14.19869995;stroke-linecap:butt;stroke-linejoin:miter;stroke-miterlimit:2.61310005;stroke-dasharray:none;stroke-opacity:1"
         id="path48"
         inkscape:connector-curvature="0" /><g
         id="g50"
         transform="matrix(-0.0374407,-0.90914,1.01094,-0.0424749,0,0)"><path
           d="m -2310.35,2684.36 c -20.77,1.59 -39.44,19.6 -47.15,36.84 -13.21,29.5 -26.44,26.87 -46.18,46.62 -13.06,13.06 -25.69,31.49 -49.62,31.48 -18.72,0.01 -23.68,14.18 -37.87,17.72 26.53,-9.95 37.89,-11.03 59.98,-28.03 26.39,-20.32 53.28,-39.8 73.69,-63.37 10.71,-12.37 48.85,-65.77 73.68,-47.16"
           style="fill:none;stroke:#231f20;stroke-width:16.5760994;stroke-linecap:butt;stroke-linejoin:miter;stroke-miterlimit:2.61310005;stroke-dasharray:none;stroke-opacity:1"
           id="path52"
           inkscape:connector-curvature="0" /></g><g
         id="g54"
         transform="matrix(-0.0396984,-0.96396,0.956168,-0.0401735,0,0)"><path
           d="m -2189.83,2840.85 c -5.84,-23.42 -29.09,-17.52 -30.68,-35.27 -1.06,-11.75 -24.07,-23.28 -33.41,-20.69 -40.1,11.14 -32.47,-48.11 -63.64,-44.54 -24.74,2.83 -30.14,9.93 -49.32,-12.73 2.88,2.07 27.98,19.42 31.82,17.5 51.12,-25.53 38.39,37.35 71.59,31.82 19.56,-3.26 24.4,17.2 33.41,28.64 13.94,17.69 26.49,15.9 40.23,35.27 z"
           style="fill:none;stroke:#231f20;stroke-width:17.5291996;stroke-linecap:butt;stroke-linejoin:miter;stroke-miterlimit:2.61310005;stroke-dasharray:none;stroke-opacity:1"
           id="path56"
           inkscape:connector-curvature="0" /></g><g
         id="g58"
         transform="matrix(0.956168,-0.0401735,0.0396984,0.96396,0,0)"><path
           d="m 2859.7,2171.2 c 16.65,15.38 51.03,25.73 70.97,32.61 17.43,6.01 42.04,40.27 55.61,32.6 16.48,-9.29 54.05,38.56 67.14,46.04 -9.49,-9.49 -14.42,-22.84 -24.94,-28.77 -5.65,-3.19 -14.21,-6.53 -21.1,-9.6 -14.64,-6.49 -30.33,8.03 -44.11,-5.75 -19.73,-19.73 -32.88,-33.13 -57.53,-38.36 -11.62,-2.46 -53.34,-17.62 -46.04,-28.77 z"
           style="fill:none;stroke:#231f20;stroke-width:17.52729988;stroke-linecap:butt;stroke-linejoin:miter;stroke-miterlimit:2.61310005;stroke-dasharray:none;stroke-opacity:1"
           id="path60"
           inkscape:connector-curvature="0" /></g><g
         id="g62"
         transform="matrix(0.956168,-0.0401735,0.0396984,0.96396,0,0)"><path
           d="m 2785.21,2250.87 c -7.07,10.34 -10.75,16.63 -29.48,8.24 -21.82,-9.76 -19.57,-3.92 -40.72,4.22 -15.3,5.88 -78.63,32.2 -88.93,47.64 11.84,-10.93 59.54,-59.36 76.3,-49.05 6.05,3.72 15.97,-4.11 19.65,-7.02 6.19,-4.87 6.1,-7.19 16.85,-8.42 3.28,-0.38 16.99,3.32 21.06,5.61 8.96,5.06 15.84,-10.25 26.14,-9.53"
           style="fill:none;stroke:#231f20;stroke-width:12.82989979;stroke-linecap:butt;stroke-linejoin:miter;stroke-miterlimit:2.61310005;stroke-dasharray:none;stroke-opacity:1"
           id="path64"
           inkscape:connector-curvature="0" /></g><g
         id="g66"
         transform="matrix(0.956168,-0.0401735,0.0396984,0.96396,0,0)"><path
           d="m 2702.37,2261.92 c -23.33,0.15 -5.06,4.85 -11.45,-4.41 -20.36,-29.51 -4.15,-39.96 17.26,-61.37 5.8,-5.8 17.64,-3.46 11.51,-13.43 -2.86,-4.65 -7.11,-11.74 -7.67,-17.26 -0.32,-3.08 5.26,-16.92 9.59,-11.51 5.93,7.43 11.85,14.38 7.67,23.02 -6.42,13.24 -46.36,26.33 -36.45,42.19 2.62,4.17 -2.67,18.27 -1.91,24.94 0.75,6.53 15.23,19.19 11.45,17.83 z"
           style="fill:none;stroke:#231f20;stroke-width:17.52729988;stroke-linecap:butt;stroke-linejoin:miter;stroke-miterlimit:2.61310005;stroke-dasharray:none;stroke-opacity:1"
           id="path68"
           inkscape:connector-curvature="0" /></g><path
         d="m 2328.37,2596.23 c 4.54,-21.25 31.86,-27.08 36.86,-46.22 7.81,-29.92 8.4,-58.68 14.88,-91.9 4.19,-21.5 -3.53,-49.11 0.61,-70.78 5.46,-28.56 -11.97,-47.96 -27.26,-67.69 -22.46,-28.97 -31.66,-26.93 -58.66,-36.86"
         style="fill:none;stroke:#231f20;stroke-width:15.6303997;stroke-linecap:butt;stroke-linejoin:miter;stroke-miterlimit:2.61310005;stroke-dasharray:none;stroke-opacity:1"
         id="path70"
         inkscape:connector-curvature="0" /><path
         d="m 3263.65,2592.46 c -4.54,-21.26 -31.86,-27.08 -36.86,-46.23 -7.81,-29.91 -8.4,-58.67 -14.88,-91.89 -4.2,-21.5 3.53,-49.11 -0.61,-70.78 -5.46,-28.56 11.97,-47.96 27.26,-67.69 22.46,-28.97 31.65,-26.94 58.66,-36.86"
         style="fill:none;stroke:#231f20;stroke-width:15.6303997;stroke-linecap:butt;stroke-linejoin:miter;stroke-miterlimit:2.61310005;stroke-dasharray:none;stroke-opacity:1"
         id="path72"
         inkscape:connector-curvature="0" /><path
         d="m 2607.8,3144.3 c 34.47,-15.91 40.14,-5.64 63.38,-39.61 10.73,-15.68 20.75,-14.97 31.69,0 10.4,14.23 20.09,16.13 27.73,23.76 15.51,15.51 21.49,23.77 47.53,23.77 20.05,0 9.77,39.36 0.1,55.58 7.93,-25.39 25.75,-41.83 -0.1,-51.62 -18.67,-7.07 -35.46,-0.39 -47.53,-19.8 -56.9,-91.51 -82.23,1.97 -106.41,1.36"
         style="fill:none;stroke:#231f20;stroke-width:15.6303997;stroke-linecap:butt;stroke-linejoin:miter;stroke-miterlimit:2.61310005;stroke-dasharray:none;stroke-opacity:1"
         id="path74"
         inkscape:connector-curvature="0" /><path
         d="m 2984.96,3144.3 c -34.47,-15.91 -40.14,-5.64 -63.38,-39.61 -10.73,-15.68 -20.75,-14.97 -31.69,0 -10.4,14.23 -20.1,16.13 -27.73,23.76 -15.51,15.51 -21.49,23.77 -47.53,23.77 -20.05,0 -9.77,39.36 -0.11,55.58 -7.93,-25.39 -25.73,-41.83 0.11,-51.62 18.66,-7.07 35.46,-0.39 47.53,-19.8 56.91,-91.51 82.23,1.97 106.41,1.36"
         style="fill:none;stroke:#231f20;stroke-width:15.6303997;stroke-linecap:butt;stroke-linejoin:miter;stroke-miterlimit:2.61310005;stroke-dasharray:none;stroke-opacity:1"
         id="path76"
         inkscape:connector-curvature="0" /><g
         id="g78"
         transform="scale(1.01391,0.986093)"><path
           d="m 2061.42,2939.85 c 17.09,37.03 44.1,46.17 70.45,50.32 29.59,4.66 6.71,40.89 6.71,63.75 0,35.2 27.98,18.5 6.71,57.03 -13.68,24.8 -19.18,31.99 0,53.68 7.24,8.18 -7.34,73.18 -6.71,97.29 1.96,74.84 -39.94,65.65 -13.42,127.49 13.21,30.8 -43.57,133.84 -83.87,97.29"
           style="fill:none;stroke:#231f20;stroke-width:16.49220085;stroke-linecap:butt;stroke-linejoin:miter;stroke-miterlimit:2.61310005;stroke-dasharray:none;stroke-opacity:1"
           id="path80"
           inkscape:connector-curvature="0" /></g><g
         id="g82"
         transform="matrix(-1.06447,-0.02845,-0.0275469,0.879537,0,0)"><path
           d="m -3373.26,3187.98 c 17.91,38.79 46.2,48.37 73.8,52.71 31,4.88 7.03,42.83 7.03,66.77 0,36.88 29.3,19.38 7.03,59.74 -14.33,25.98 -20.09,33.51 0,56.23 7.59,8.57 -7.69,76.65 -7.03,101.91 2.05,78.38 -41.83,68.76 -14.06,133.53 13.83,32.26 -20.29,146 -62.51,107.73"
           style="fill:none;stroke:#231f20;stroke-width:17.27459908;stroke-linecap:butt;stroke-linejoin:miter;stroke-miterlimit:2.61310005;stroke-dasharray:none;stroke-opacity:1"
           id="path84"
           inkscape:connector-curvature="0" /></g><path
         d="m 2135.58,3419.74 c 28.47,46.72 16.46,50.55 24.26,96.55 4.23,24.99 36.31,46.47 46.66,69.11 8.32,18.22 15.74,28.68 33.95,39.18 19.36,11.16 9.85,30.7 18.61,51.09 7.31,17.02 63.55,52.34 109.05,75.31 -45.47,-42.02 -99.26,-38.34 -109.05,-75.31 -15.42,-58.24 -50.11,-79.65 -70.37,-110.8 -10.92,-16.8 -23.44,-37.14 -24.52,-57.37 -1.78,-33.27 -7.54,-51.45 -28.59,-87.76 z"
         style="fill:none;stroke:#231f20;stroke-width:15.62959957;stroke-linecap:butt;stroke-linejoin:miter;stroke-miterlimit:2.61310005;stroke-dasharray:none;stroke-opacity:1"
         id="path86"
         inkscape:connector-curvature="0" /><path
         d="m 2309.98,3718.07 c 4.19,23.1 2.08,25.13 13.57,39.41 1.75,2.16 18.87,16.33 15.83,19.78 -5.88,6.65 -21.76,14.7 -21.76,23.74 0,5.13 0.43,9.38 1.98,13.85 3.83,11.13 4.6,12.24 13.07,5.71"
         style="fill:none;stroke:#231f20;stroke-width:15.6303997;stroke-linecap:butt;stroke-linejoin:miter;stroke-miterlimit:2.61310005;stroke-dasharray:none;stroke-opacity:1"
         id="path88"
         inkscape:connector-curvature="0" /><path
         d="m 3415.39,3324.11 c -31.98,69.29 -17.87,14.41 -17.87,84.27 0,35.54 -12.43,39.47 -30.64,65.65 -18.44,26.52 22.06,34.88 24.07,50.33 4.73,36.29 -56.89,72.35 -56.89,80.96 0,44.87 -18.54,36.66 -21.88,65.65 -2.68,23.23 -43.16,-8.16 -54.71,21.88 -17.09,44.43 42.64,21.87 -15.32,67.84 -43.43,34.45 4.65,44.86 10.94,70.02"
         style="fill:none;stroke:#231f20;stroke-width:15.6303997;stroke-linecap:butt;stroke-linejoin:miter;stroke-miterlimit:2.61310005;stroke-dasharray:none;stroke-opacity:1"
         id="path90"
         inkscape:connector-curvature="0" /><g
         id="g92"
         transform="scale(1.02167,0.97833)"><path
           d="m 2252.05,3287.17 c -11.02,5.09 -18.02,14.85 -29.45,17.21 -17.41,3.6 -27.98,10.52 -52.14,10.41 -8.18,-0.04 -14.02,-8.79 -22.59,-8.79 -7.48,0 -15.44,8.79 -25.11,8.79"
           style="fill:none;stroke:#231f20;stroke-width:15.97659969;stroke-linecap:butt;stroke-linejoin:miter;stroke-miterlimit:2.61310005;stroke-dasharray:none;stroke-opacity:1"
           id="path94"
           inkscape:connector-curvature="0" /></g><g
         id="g96"
         transform="scale(1.02167,0.97833)"><path
           d="m 2208.12,3180.47 c -19.95,0 -35.09,4.2 -46.44,-5.02 -6.35,-5.15 -9.54,-5.83 -16.33,-3.77 -7.56,2.28 -14.65,12.78 -23.85,15.07"
           style="fill:none;stroke:#231f20;stroke-width:15.97659969;stroke-linecap:butt;stroke-linejoin:miter;stroke-miterlimit:2.61310005;stroke-dasharray:none;stroke-opacity:1"
           id="path98"
           inkscape:connector-curvature="0" /></g><g
         id="g100"
         transform="scale(-1.02167,0.97833)"><path
           d="m -3280.03,3189.37 c -19.95,0 -14.18,-0.74 -25.53,-9.94 -6.33,-5.13 -4.22,20 -11.28,19.55 -3.2,-0.2 -1.94,-10.78 -12.32,2.81"
           style="fill:none;stroke:#231f20;stroke-width:15.97659969;stroke-linecap:butt;stroke-linejoin:miter;stroke-miterlimit:2.61310005;stroke-dasharray:none;stroke-opacity:1"
           id="path102"
           inkscape:connector-curvature="0" /></g><path
         d="m 2767.02,2856.02 c -12.34,22.92 6.72,48.16 -13.94,68.06 -10.98,10.57 -21.39,23.23 -24.97,38.05 -1.8,7.5 -1.01,10.96 -5.3,17.68 -9.91,15.51 -17.68,-0.72 -17.68,19.45 0,57.65 -57.22,16.03 -65.44,40.68"
         style="fill:none;stroke:#231f20;stroke-width:15.6303997;stroke-linecap:butt;stroke-linejoin:miter;stroke-miterlimit:2.61310005;stroke-dasharray:none;stroke-opacity:1"
         id="path104"
         inkscape:connector-curvature="0" /><path
         d="m 2821.84,2857.79 c 0,15.65 -1.01,22.53 5.84,43.46 5.26,16.06 15,42.06 17.15,60.88 2.76,24.06 19.44,14.13 8.85,45.98 -3.35,10.05 -4.43,26.52 8.84,26.52 5.92,0 17.68,8.77 17.68,15.92 0,20.01 49.23,-5.22 61.9,10.61"
         style="fill:none;stroke:#231f20;stroke-width:15.6303997;stroke-linecap:butt;stroke-linejoin:miter;stroke-miterlimit:2.61310005;stroke-dasharray:none;stroke-opacity:1"
         id="path106"
         inkscape:connector-curvature="0" /><path
         d="m 2784.65,2838.6 c -4.58,19.83 10.43,56.69 8.34,86.76 -1.45,20.9 5.25,19.37 3.39,47.37 -0.4,6.09 -3.29,19.73 -4.88,39.44 -1.44,17.73 -16.5,59.83 -6.57,87.89 -3.12,-29.98 9.76,-94.38 19.23,-118.48 7.42,-18.88 -4.61,-119.91 -19.51,-142.98 z"
         style="fill:none;stroke:#231f20;stroke-width:15.6303997;stroke-linecap:butt;stroke-linejoin:miter;stroke-miterlimit:2.61310005;stroke-dasharray:none;stroke-opacity:1"
         id="path108"
         inkscape:connector-curvature="0" /><path
         d="m 2573.96,2758.95 c 0.02,61.4 5.36,59.3 62.92,66.68 -1.46,-38.84 -7.66,-40.96 -62.92,-66.68"
         style="fill:#231f20;fill-opacity:1;fill-rule:evenodd;stroke:none"
         id="path110"
         inkscape:connector-curvature="0" /><path
         d="m 3020.71,2752.66 c 5.56,66.56 -0.42,64.77 -62.15,77.99 -1.95,-42.24 4.58,-45.1 62.15,-77.99"
         style="fill:#231f20;fill-opacity:1;fill-rule:evenodd;stroke:none"
         id="path112"
         inkscape:connector-curvature="0" /><g
         id="g114"
         transform="matrix(-1.07955,0.122486,0.0813121,0.716655,0,0)"><path
           d="m -2230.82,4799.24 c -3.72,16.15 8.49,46.16 6.8,70.65 -1.19,17.01 4.27,15.77 2.75,38.57 -0.32,4.95 -2.67,16.06 -3.97,32.11 -1.17,14.43 -13.43,48.71 -5.35,71.57 -2.54,-24.42 7.95,-76.86 15.66,-96.49 6.04,-15.36 -3.75,-97.62 -15.89,-116.41 z"
           style="fill:none;stroke:#231f20;stroke-width:12.72659969;stroke-linecap:butt;stroke-linejoin:miter;stroke-miterlimit:2.61310005;stroke-dasharray:none;stroke-opacity:1"
           id="path116"
           inkscape:connector-curvature="0" /></g><g
         id="g118"
         transform="matrix(1.11928,0.00442414,0.00568776,-0.870613,0,0)"><path
           d="m 2244.09,-2735.68 c 10.1,-4.3 21.28,-3.79 33.22,0 0.54,15.43 0.19,30.6 -2.93,44.93 -8.8,3.18 -17.34,3.32 -25.4,-1.95 -3.94,-9.49 -4.64,-25.75 -4.89,-42.98 z"
           style="fill:none;stroke:#231f20;stroke-width:8.21879005;stroke-linecap:butt;stroke-linejoin:miter;stroke-miterlimit:2.61310005;stroke-dasharray:none;stroke-opacity:1"
           id="path120"
           inkscape:connector-curvature="0" /></g><path
         d="m 2496.2,2391.65 c 11.27,3.78 23.79,3.39 37.18,0.14 0.69,-13.43 0.39,-26.63 -3.03,-39.13 -9.83,-2.8 -19.39,-2.96 -28.44,1.59 -4.46,8.24 -5.34,22.4 -5.71,37.4"
         style="fill:#ffffff;fill-opacity:1;fill-rule:evenodd;stroke:none"
         id="path122"
         inkscape:connector-curvature="0" /><g
         id="g124"
         transform="matrix(1.11928,0.00442414,0.00568775,-0.870613,0,0)"><path
           d="m 2270.7,-2724.32 c 12.21,-5.2 25.74,-4.59 40.19,0 0.66,18.68 0.24,37.03 -3.55,54.38 -10.65,3.85 -20.98,4.01 -30.73,-2.36 -4.76,-11.49 -5.62,-31.16 -5.91,-52.02 z"
           style="fill:none;stroke:#231f20;stroke-width:9.94556046;stroke-linecap:butt;stroke-linejoin:miter;stroke-miterlimit:2.61310005;stroke-dasharray:none;stroke-opacity:1"
           id="path126"
           inkscape:connector-curvature="0" /></g><path
         d="m 2526.04,2381.87 c 13.64,4.58 28.79,4.11 44.99,0.18 0.84,-16.26 0.47,-32.24 -3.67,-47.36 -11.89,-3.39 -23.45,-3.58 -34.41,1.92 -5.4,9.98 -6.46,27.11 -6.91,45.26"
         style="fill:#ffffff;fill-opacity:1;fill-rule:evenodd;stroke:none"
         id="path128"
         inkscape:connector-curvature="0" /><g
         id="g130"
         transform="matrix(1.11928,0.00442414,0.00568775,-0.870613,0,0)"><path
           d="m 2299.5,-2705.92 c 13.03,-5.55 27.46,-4.9 42.85,0 0.71,19.91 0.26,39.48 -3.77,57.97 -11.36,4.1 -22.37,4.28 -32.77,-2.52 -5.08,-12.24 -5.99,-33.22 -6.31,-55.45 z"
           style="fill:none;stroke:#231f20;stroke-width:10.60369968;stroke-linecap:butt;stroke-linejoin:miter;stroke-miterlimit:2.61310005;stroke-dasharray:none;stroke-opacity:1"
           id="path132"
           inkscape:connector-curvature="0" /></g><path
         d="m 2558.39,2365.98 c 14.54,4.89 30.7,4.39 47.96,0.2 0.9,-17.34 0.51,-34.38 -3.9,-50.49 -12.69,-3.62 -25.01,-3.83 -36.69,2.04 -5.76,10.64 -6.89,28.9 -7.37,48.25"
         style="fill:#ffffff;fill-opacity:1;fill-rule:evenodd;stroke:none"
         id="path134"
         inkscape:connector-curvature="0" /><g
         id="g136"
         transform="matrix(1.11928,0.00442414,0.00568775,-0.870613,0,0)"><path
           d="m 2332.29,-2691.73 c 15.23,-6.49 32.12,-5.72 50.13,0 0.82,23.3 0.3,46.19 -4.42,67.83 -13.28,4.8 -26.17,5.01 -38.34,-2.95 -5.94,-14.32 -7,-38.87 -7.37,-64.88 z"
           style="fill:none;stroke:#231f20;stroke-width:12.40670013;stroke-linecap:butt;stroke-linejoin:miter;stroke-miterlimit:2.61310005;stroke-dasharray:none;stroke-opacity:1"
           id="path138"
           inkscape:connector-curvature="0" /></g><path
         d="m 2595.16,2353.77 c 17.02,5.72 35.92,5.13 56.12,0.23 1.05,-20.29 0.59,-40.22 -4.57,-59.08 -14.84,-4.23 -29.26,-4.47 -42.92,2.4 -6.74,12.44 -8.07,33.81 -8.63,56.45"
         style="fill:#ffffff;fill-opacity:1;fill-rule:evenodd;stroke:none"
         id="path140"
         inkscape:connector-curvature="0" /><g
         id="g142"
         transform="matrix(1.11928,0.00442414,0.00568775,-0.870613,0,0)"><path
           d="m 2384.69,-2668.46 c 16.24,-6.92 34.24,-6.1 53.45,0 0.87,24.84 0.31,49.25 -4.72,72.32 -14.16,5.12 -27.9,5.34 -40.87,-3.14 -6.34,-15.27 -7.47,-41.45 -7.86,-69.18 z"
           style="fill:none;stroke:#231f20;stroke-width:13.2276001;stroke-linecap:butt;stroke-linejoin:miter;stroke-miterlimit:2.61310005;stroke-dasharray:none;stroke-opacity:1"
           id="path144"
           inkscape:connector-curvature="0" /></g><path
         d="m 2653.94,2333.75 c 18.14,6.09 38.29,5.46 59.83,0.23 1.12,-21.62 0.63,-42.87 -4.87,-62.98 -15.82,-4.52 -31.2,-4.77 -45.77,2.55 -7.17,13.27 -8.59,36.05 -9.19,60.2"
         style="fill:#ffffff;fill-opacity:1;fill-rule:evenodd;stroke:none"
         id="path146"
         inkscape:connector-curvature="0" /><g
         id="g148"
         transform="scale(1.12496,-0.875037)"><path
           d="m 2422.33,-2656.57 c 17.2,-7.32 36.26,-6.46 56.61,0 0.92,26.31 0.33,52.16 -5,76.59 -15,5.41 -29.55,5.65 -43.29,-3.33 -6.7,-16.17 -7.91,-43.89 -8.32,-73.26 z"
           style="fill:none;stroke:#231f20;stroke-width:14.00749969;stroke-linecap:butt;stroke-linejoin:miter;stroke-miterlimit:2.61310005;stroke-dasharray:none;stroke-opacity:1"
           id="path150"
           inkscape:connector-curvature="0" /></g><path
         d="m 2725.03,2324.59 c 19.35,6.41 40.8,5.66 63.68,0 1.04,-23.02 0.38,-45.63 -5.62,-67.01 -16.87,-4.74 -33.24,-4.95 -48.7,2.91 -7.54,14.15 -8.89,38.4 -9.36,64.1"
         style="fill:#ffffff;fill-opacity:1;fill-rule:evenodd;stroke:none"
         id="path152"
         inkscape:connector-curvature="0" /><g
         id="g154"
         transform="matrix(-1.11928,0.00442414,-0.00568776,-0.870613,0,0)"><path
           d="m -2752.56,-2761.07 c 10.09,-4.3 21.27,-3.79 33.21,0 0.55,15.44 0.2,30.6 -2.93,44.94 -8.8,3.17 -17.33,3.32 -25.4,-1.96 -3.93,-9.48 -4.64,-25.74 -4.88,-42.98 z"
           style="fill:none;stroke:#231f20;stroke-width:8.21879005;stroke-linecap:butt;stroke-linejoin:miter;stroke-miterlimit:2.61310005;stroke-dasharray:none;stroke-opacity:1"
           id="path156"
           inkscape:connector-curvature="0" /></g><path
         d="m 3096.58,2391.64 c -11.28,3.79 -23.79,3.4 -37.18,0.15 -0.69,-13.43 -0.39,-26.64 3.03,-39.13 9.83,-2.81 19.38,-2.97 28.44,1.59 4.45,8.23 5.34,22.39 5.71,37.39"
         style="fill:#ffffff;fill-opacity:1;fill-rule:evenodd;stroke:none"
         id="path158"
         inkscape:connector-curvature="0" /><g
         id="g160"
         transform="matrix(-1.11928,0.00442414,-0.00568775,-0.870613,0,0)"><path
           d="m -2725.96,-2749.7 c 12.22,-5.2 25.75,-4.59 40.19,0 0.66,18.67 0.24,37.03 -3.54,54.37 -10.65,3.85 -20.98,4.02 -30.74,-2.36 -4.76,-11.48 -5.61,-31.16 -5.91,-52.01 z"
           style="fill:none;stroke:#231f20;stroke-width:9.94556046;stroke-linecap:butt;stroke-linejoin:miter;stroke-miterlimit:2.61310005;stroke-dasharray:none;stroke-opacity:1"
           id="path162"
           inkscape:connector-curvature="0" /></g><path
         d="m 3066.73,2381.87 c -13.64,4.58 -28.78,4.11 -44.98,0.17 -0.84,-16.25 -0.47,-32.23 3.66,-47.35 11.9,-3.4 23.46,-3.59 34.41,1.92 5.4,9.97 6.47,27.1 6.91,45.26"
         style="fill:#ffffff;fill-opacity:1;fill-rule:evenodd;stroke:none"
         id="path164"
         inkscape:connector-curvature="0" /><g
         id="g166"
         transform="matrix(-1.11928,0.00442414,-0.00568775,-0.870613,0,0)"><path
           d="m -2697.15,-2731.31 c 13.02,-5.55 27.45,-4.89 42.85,0 0.7,19.91 0.25,39.47 -3.78,57.97 -11.36,4.1 -22.37,4.28 -32.77,-2.52 -5.08,-12.24 -5.99,-33.22 -6.3,-55.45 z"
           style="fill:none;stroke:#231f20;stroke-width:10.60369968;stroke-linecap:butt;stroke-linejoin:miter;stroke-miterlimit:2.61310005;stroke-dasharray:none;stroke-opacity:1"
           id="path168"
           inkscape:connector-curvature="0" /></g><path
         d="m 3034.39,2365.98 c -14.55,4.89 -30.7,4.38 -47.96,0.19 -0.9,-17.33 -0.51,-34.37 3.9,-50.49 12.69,-3.62 25.01,-3.82 36.69,2.05 5.75,10.63 6.89,28.9 7.37,48.25"
         style="fill:#ffffff;fill-opacity:1;fill-rule:evenodd;stroke:none"
         id="path170"
         inkscape:connector-curvature="0" /><g
         id="g172"
         transform="matrix(-1.11928,0.00442414,-0.00568775,-0.870613,0,0)"><path
           d="m -2664.37,-2717.12 c 15.24,-6.48 32.12,-5.72 50.14,0.01 0.82,23.3 0.29,46.19 -4.42,67.83 -13.29,4.79 -26.18,5 -38.35,-2.95 -5.94,-14.32 -7,-38.88 -7.37,-64.89 z"
           style="fill:none;stroke:#231f20;stroke-width:12.40670013;stroke-linecap:butt;stroke-linejoin:miter;stroke-miterlimit:2.61310005;stroke-dasharray:none;stroke-opacity:1"
           id="path174"
           inkscape:connector-curvature="0" /></g><path
         d="m 2997.61,2353.77 c -17.01,5.71 -35.91,5.12 -56.11,0.22 -1.05,-20.28 -0.59,-40.21 4.56,-59.08 14.85,-4.23 29.27,-4.47 42.94,2.4 6.73,12.44 8.05,33.82 8.61,56.46"
         style="fill:#ffffff;fill-opacity:1;fill-rule:evenodd;stroke:none"
         id="path176"
         inkscape:connector-curvature="0" /><g
         id="g178"
         transform="matrix(-1.11928,0.00442414,-0.00568775,-0.870613,0,0)"><path
           d="m -2611.97,-2693.84 c 16.24,-6.92 34.24,-6.11 53.46,0 0.87,24.83 0.31,49.24 -4.72,72.32 -14.17,5.11 -27.91,5.33 -40.88,-3.15 -6.33,-15.27 -7.47,-41.44 -7.86,-69.17 z"
           style="fill:none;stroke:#231f20;stroke-width:13.2276001;stroke-linecap:butt;stroke-linejoin:miter;stroke-miterlimit:2.61310005;stroke-dasharray:none;stroke-opacity:1"
           id="path180"
           inkscape:connector-curvature="0" /></g><path
         d="m 2938.84,2333.74 c -18.14,6.09 -38.3,5.46 -59.84,0.24 -1.11,-21.62 -0.62,-42.88 4.88,-62.99 15.82,-4.51 31.19,-4.77 45.76,2.56 7.18,13.27 8.6,36.05 9.2,60.19"
         style="fill:#ffffff;fill-opacity:1;fill-rule:evenodd;stroke:none"
         id="path182"
         inkscape:connector-curvature="0" /><g
         id="g184"
         transform="scale(-1.12496,-0.875037)"><path
           d="m -2549.19,-2656.56 c 17.2,-7.32 36.26,-6.47 56.6,0 0.93,26.31 0.34,52.15 -4.99,76.58 -15,5.42 -29.55,5.66 -43.28,-3.33 -6.71,-16.16 -7.91,-43.88 -8.33,-73.25 z"
           style="fill:none;stroke:#231f20;stroke-width:14.00749969;stroke-linecap:butt;stroke-linejoin:miter;stroke-miterlimit:2.61310005;stroke-dasharray:none;stroke-opacity:1"
           id="path186"
           inkscape:connector-curvature="0" /></g><path
         d="m 2867.75,2324.59 c -19.35,6.41 -40.8,5.66 -63.68,0 -1.05,-23.02 -0.38,-45.64 5.61,-67.02 16.88,-4.73 33.25,-4.94 48.7,2.92 7.55,14.14 8.9,38.4 9.37,64.1"
         style="fill:#ffffff;fill-opacity:1;fill-rule:evenodd;stroke:none"
         id="path188"
         inkscape:connector-curvature="0" /><g
         id="g190"
         transform="matrix(1.11928,-0.00442415,0.00568775,0.870613,0,0)"><path
           d="m 2202.58,2756.3 c 11.74,-5 24.75,-4.41 38.64,0 0.63,17.96 0.23,35.6 -3.41,52.28 -10.24,3.7 -20.17,3.86 -29.55,-2.27 -4.58,-11.04 -5.4,-29.96 -5.68,-50.01 z"
           style="fill:none;stroke:#231f20;stroke-width:9.5622797;stroke-linecap:butt;stroke-linejoin:miter;stroke-miterlimit:2.61310005;stroke-dasharray:none;stroke-opacity:1"
           id="path192"
           inkscape:connector-curvature="0" /></g><path
         d="m 2480.97,2389.93 c 13.11,-4.41 27.68,-3.95 43.25,-0.18 0.81,15.64 0.46,31 -3.52,45.54 -11.44,3.26 -22.56,3.44 -33.09,-1.85 -5.18,-9.59 -6.21,-26.06 -6.64,-43.51"
         style="fill:#ffffff;fill-opacity:1;fill-rule:evenodd;stroke:none"
         id="path194"
         inkscape:connector-curvature="0" /><g
         id="g196"
         transform="matrix(1.11928,-0.00442414,0.00568776,0.870613,0,0)"><path
           d="m 2231.94,2739.47 c 14.21,-6.06 29.96,-5.35 46.76,0 0.76,21.73 0.28,43.08 -4.13,63.26 -12.39,4.47 -24.4,4.67 -35.75,-2.75 -5.54,-13.36 -6.53,-36.26 -6.88,-60.51 z"
           style="fill:none;stroke:#231f20;stroke-width:11.57129955;stroke-linecap:butt;stroke-linejoin:miter;stroke-miterlimit:2.61310005;stroke-dasharray:none;stroke-opacity:1"
           id="path198"
           inkscape:connector-curvature="0" /></g><path
         d="m 2513.73,2375.14 c 15.88,-5.33 33.5,-4.78 52.34,-0.21 0.98,18.92 0.56,37.51 -4.25,55.1 -13.85,3.95 -27.3,4.17 -40.04,-2.24 -6.28,-11.6 -7.52,-31.53 -8.05,-52.65"
         style="fill:#ffffff;fill-opacity:1;fill-rule:evenodd;stroke:none"
         id="path200"
         inkscape:connector-curvature="0" /><g
         id="g202"
         transform="matrix(1.11928,-0.00442414,0.00568775,0.870613,0,0)"><path
           d="m 2268.58,2729.42 c 15.15,-6.45 31.94,-5.69 49.86,0 0.81,23.17 0.29,45.93 -4.4,67.45 -13.21,4.77 -26.02,4.98 -38.13,-2.93 -5.9,-14.24 -6.96,-38.65 -7.33,-64.52 z"
           style="fill:none;stroke:#231f20;stroke-width:12.33710003;stroke-linecap:butt;stroke-linejoin:miter;stroke-miterlimit:2.61310005;stroke-dasharray:none;stroke-opacity:1"
           id="path204"
           inkscape:connector-curvature="0" /></g><path
         d="m 2554.69,2366.23 c 16.92,-5.68 35.72,-5.09 55.8,-0.22 1.05,20.17 0.59,39.99 -4.54,58.75 -14.75,4.2 -29.09,4.44 -42.68,-2.38 -6.7,-12.38 -8.02,-33.63 -8.58,-56.15"
         style="fill:#ffffff;fill-opacity:1;fill-rule:evenodd;stroke:none"
         id="path206"
         inkscape:connector-curvature="0" /><g
         id="g208"
         transform="matrix(1.11928,-0.00442414,0.00568775,0.870613,0,0)"><path
           d="m 2306.35,2714.98 c 17.73,-7.54 37.37,-6.66 58.34,0 0.95,27.11 0.34,53.74 -5.15,78.92 -15.46,5.59 -30.45,5.83 -44.61,-3.43 -6.91,-16.66 -8.15,-45.22 -8.58,-75.49 z"
           style="fill:none;stroke:#231f20;stroke-width:14.43480015;stroke-linecap:butt;stroke-linejoin:miter;stroke-miterlimit:2.61310005;stroke-dasharray:none;stroke-opacity:1"
           id="path210"
           inkscape:connector-curvature="0" /></g><path
         d="m 2596.88,2353.5 c 19.8,-6.65 41.79,-5.97 65.3,-0.26 1.21,23.6 0.68,46.78 -5.32,68.73 -17.27,4.93 -34.04,5.21 -49.94,-2.79 -7.83,-14.48 -9.38,-39.34 -10.04,-65.68"
         style="fill:#ffffff;fill-opacity:1;fill-rule:evenodd;stroke:none"
         id="path212"
         inkscape:connector-curvature="0" /><g
         id="g214"
         transform="matrix(1.11928,-0.00442414,0.00568775,0.870613,0,0)"><path
           d="m 2353.18,2705.16 c 18.9,-8.05 39.84,-7.1 62.19,0 1.02,28.9 0.37,57.3 -5.49,84.14 -16.47,5.95 -32.46,6.21 -47.56,-3.65 -7.36,-17.77 -8.68,-48.22 -9.14,-80.49 z"
           style="fill:none;stroke:#231f20;stroke-width:15.38980007;stroke-linecap:butt;stroke-linejoin:miter;stroke-miterlimit:2.61310005;stroke-dasharray:none;stroke-opacity:1"
           id="path216"
           inkscape:connector-curvature="0" /></g><path
         d="m 2649.24,2344.74 c 21.11,-7.09 44.56,-6.36 69.61,-0.28 1.31,25.16 0.74,49.88 -5.66,73.28 -18.41,5.25 -36.3,5.55 -53.26,-2.97 -8.34,-15.44 -9.99,-41.94 -10.69,-70.03"
         style="fill:#ffffff;fill-opacity:1;fill-rule:evenodd;stroke:none"
         id="path218"
         inkscape:connector-curvature="0" /><g
         id="g220"
         transform="scale(1.12496,0.875037)"><path
           d="m 2415.26,2671 c 20.01,-8.52 42.19,-7.51 65.86,0 1.07,30.61 0.38,60.68 -5.82,89.11 -17.45,6.3 -34.38,6.57 -50.36,-3.88 -7.8,-18.81 -9.2,-51.06 -9.68,-85.23 z"
           style="fill:none;stroke:#231f20;stroke-width:16.29719925;stroke-linecap:butt;stroke-linejoin:miter;stroke-miterlimit:2.61310005;stroke-dasharray:none;stroke-opacity:1"
           id="path222"
           inkscape:connector-curvature="0" /></g><path
         d="m 2717.07,2337.23 c 22.52,-7.46 47.47,-6.58 74.09,0 1.21,26.78 0.44,53.09 -6.54,77.97 -19.63,5.51 -38.67,5.75 -56.66,-3.4 -8.77,-16.46 -10.34,-44.67 -10.89,-74.57"
         style="fill:#ffffff;fill-opacity:1;fill-rule:evenodd;stroke:none"
         id="path224"
         inkscape:connector-curvature="0" /><g
         id="g226"
         transform="matrix(-1.11928,-0.00442415,-0.00568775,0.870613,0,0)"><path
           d="m -2794.06,2730.91 c 11.74,-5 24.75,-4.41 38.64,0 0.63,17.96 0.22,35.6 -3.41,52.28 -10.24,3.7 -20.17,3.86 -29.55,-2.27 -4.58,-11.04 -5.4,-29.96 -5.68,-50.01 z"
           style="fill:none;stroke:#231f20;stroke-width:9.5622797;stroke-linecap:butt;stroke-linejoin:miter;stroke-miterlimit:2.61310005;stroke-dasharray:none;stroke-opacity:1"
           id="path228"
           inkscape:connector-curvature="0" /></g><path
         d="m 3111.79,2389.93 c -13.11,-4.41 -27.68,-3.95 -43.25,-0.18 -0.81,15.64 -0.45,31 3.52,45.54 11.44,3.26 22.55,3.44 33.09,-1.85 5.19,-9.59 6.21,-26.06 6.64,-43.51"
         style="fill:#ffffff;fill-opacity:1;fill-rule:evenodd;stroke:none"
         id="path230"
         inkscape:connector-curvature="0" /><g
         id="g232"
         transform="matrix(-1.11928,-0.00442414,-0.00568776,0.870613,0,0)"><path
           d="m -2764.7,2714.08 c 14.21,-6.06 29.96,-5.35 46.76,0 0.76,21.72 0.27,43.07 -4.12,63.26 -12.4,4.47 -24.42,4.67 -35.76,-2.75 -5.55,-13.36 -6.54,-36.26 -6.88,-60.51 z"
           style="fill:none;stroke:#231f20;stroke-width:11.57129955;stroke-linecap:butt;stroke-linejoin:miter;stroke-miterlimit:2.61310005;stroke-dasharray:none;stroke-opacity:1"
           id="path234"
           inkscape:connector-curvature="0" /></g><path
         d="m 3079.02,2375.14 c -15.87,-5.33 -33.5,-4.78 -52.34,-0.21 -0.97,18.92 -0.55,37.51 4.26,55.1 13.85,3.95 27.3,4.17 40.04,-2.24 6.28,-11.6 7.52,-31.53 8.04,-52.65"
         style="fill:#ffffff;fill-opacity:1;fill-rule:evenodd;stroke:none"
         id="path236"
         inkscape:connector-curvature="0" /><g
         id="g238"
         transform="matrix(-1.11928,-0.00442414,-0.00568775,0.870613,0,0)"><path
           d="m -2728.06,2704.03 c 15.15,-6.45 31.94,-5.69 49.86,0 0.81,23.17 0.29,45.93 -4.4,67.45 -13.21,4.77 -26.03,4.98 -38.12,-2.93 -5.91,-14.24 -6.97,-38.65 -7.34,-64.52 z"
           style="fill:none;stroke:#231f20;stroke-width:12.33710003;stroke-linecap:butt;stroke-linejoin:miter;stroke-miterlimit:2.61310005;stroke-dasharray:none;stroke-opacity:1"
           id="path240"
           inkscape:connector-curvature="0" /></g><path
         d="m 3038.07,2366.23 c -16.93,-5.68 -35.72,-5.09 -55.8,-0.22 -1.05,20.17 -0.59,39.99 4.53,58.75 14.76,4.2 29.11,4.44 42.69,-2.38 6.7,-12.38 8.02,-33.63 8.58,-56.15"
         style="fill:#ffffff;fill-opacity:1;fill-rule:evenodd;stroke:none"
         id="path242"
         inkscape:connector-curvature="0" /><g
         id="g244"
         transform="matrix(-1.11928,-0.00442414,-0.00568775,0.870613,0,0)"><path
           d="m -2690.29,2689.59 c 17.73,-7.54 37.37,-6.66 58.33,0 0.95,27.11 0.35,53.74 -5.14,78.92 -15.46,5.58 -30.45,5.83 -44.61,-3.43 -6.91,-16.66 -8.15,-45.22 -8.58,-75.49 z"
           style="fill:none;stroke:#231f20;stroke-width:14.43480015;stroke-linecap:butt;stroke-linejoin:miter;stroke-miterlimit:2.61310005;stroke-dasharray:none;stroke-opacity:1"
           id="path246"
           inkscape:connector-curvature="0" /></g><path
         d="m 2995.88,2353.5 c -19.8,-6.65 -41.79,-5.97 -65.29,-0.26 -1.22,23.6 -0.7,46.78 5.3,68.73 17.27,4.93 34.06,5.21 49.95,-2.79 7.84,-14.48 9.38,-39.34 10.04,-65.68"
         style="fill:#ffffff;fill-opacity:1;fill-rule:evenodd;stroke:none"
         id="path248"
         inkscape:connector-curvature="0" /><g
         id="g250"
         transform="matrix(-1.11928,-0.00442414,-0.00568775,0.870613,0,0)"><path
           d="m -2643.46,2679.77 c 18.9,-8.05 39.84,-7.11 62.19,0 1.02,28.9 0.37,57.3 -5.49,84.14 -16.48,5.95 -32.46,6.21 -47.56,-3.65 -7.36,-17.77 -8.68,-48.22 -9.14,-80.49 z"
           style="fill:none;stroke:#231f20;stroke-width:15.38980007;stroke-linecap:butt;stroke-linejoin:miter;stroke-miterlimit:2.61310005;stroke-dasharray:none;stroke-opacity:1"
           id="path252"
           inkscape:connector-curvature="0" /></g><path
         d="m 2943.52,2344.74 c -21.11,-7.09 -44.56,-6.36 -69.61,-0.28 -1.3,25.16 -0.74,49.88 5.66,73.28 18.41,5.25 36.3,5.55 53.25,-2.97 8.35,-15.44 10,-41.94 10.7,-70.03"
         style="fill:#ffffff;fill-opacity:1;fill-rule:evenodd;stroke:none"
         id="path254"
         inkscape:connector-curvature="0" /><g
         id="g256"
         transform="scale(-1.12496,0.875037)"><path
           d="m -2556.25,2671 c 20.01,-8.52 42.19,-7.51 65.86,0 1.08,30.61 0.38,60.68 -5.81,89.11 -17.46,6.3 -34.38,6.57 -50.37,-3.88 -7.8,-18.81 -9.19,-51.06 -9.68,-85.23 z"
           style="fill:none;stroke:#231f20;stroke-width:16.29719925;stroke-linecap:butt;stroke-linejoin:miter;stroke-miterlimit:2.61310005;stroke-dasharray:none;stroke-opacity:1"
           id="path258"
           inkscape:connector-curvature="0" /></g><path
         d="m 2875.69,2337.23 c -22.52,-7.46 -47.47,-6.58 -74.09,0 -1.21,26.78 -0.44,53.09 6.54,77.97 19.63,5.51 38.67,5.75 56.65,-3.4 8.78,-16.46 10.35,-44.67 10.9,-74.57"
         style="fill:#ffffff;fill-opacity:1;fill-rule:evenodd;stroke:none"
         id="path260"
         inkscape:connector-curvature="0" /></g></g></svg>